<?xml version="1.0" encoding="UTF-8"?>
<svg width="36px" height="36px" viewBox="0 0 36 36" version="1.1" xmlns="http://www.w3.org/2000/svg" xmlns:xlink="http://www.w3.org/1999/xlink">
    <title>93B4E1E2-6F3F-42EC-B127-721783A872DFmdpi/</title>
    <g id="Page-1" stroke="none" stroke-width="1" fill="none" fill-rule="evenodd">
        <g id="ms3" transform="translate(-422.000000, -239.000000)" fill="#000000" fill-rule="nonzero">
            <g id="cyber-security-copy" transform="translate(422.000000, 239.000000)">
                <path d="M24,18 L22.8,18 L22.8,16.2 L21,16.2 L21,15 L22.8,15 C23.4627417,15 24,15.5372583 24,16.2 L24,18 Z" id="Path"></path>
                <path d="M15,28.2 L13.2,28.2 C12.5372583,28.2 12,27.6627417 12,27 L12,25.2 L13.2,25.2 L13.2,27 L15,27 L15,28.2 Z" id="Path"></path>
                <path d="M2.4,4.8 C1.0745166,4.8 0,3.7254834 0,2.4 C0,1.0745166 1.0745166,0 2.4,0 C3.7254834,0 4.8,1.0745166 4.8,2.4 C4.8,3.03651958 4.54714358,3.64696897 4.09705627,4.09705627 C3.64696897,4.54714358 3.03651958,4.8 2.4,4.8 Z M2.4,1.2 C1.7372583,1.2 1.2,1.7372583 1.2,2.4 C1.2,3.0627417 1.7372583,3.6 2.4,3.6 C3.0627417,3.6 3.6,3.0627417 3.6,2.4 C3.6,1.7372583 3.0627417,1.2 2.4,1.2 L2.4,1.2 Z" id="Shape"></path>
                <polygon id="Path" points="6 1.8 7.2 1.8 7.2 3 6 3"></polygon>
                <polygon id="Path" points="8.4 1.8 16.2 1.8 16.2 3 8.4 3"></polygon>
                <path d="M33.6,4.8 C32.2745166,4.8 31.2,3.7254834 31.2,2.4 C31.2,1.0745166 32.2745166,0 33.6,0 C34.9254834,0 36,1.0745166 36,2.4 C36,3.03651958 35.7471436,3.64696897 35.2970563,4.09705627 C34.846969,4.54714358 34.2365196,4.8 33.6,4.8 Z M33.6,1.2 C32.9372583,1.2 32.4,1.7372583 32.4,2.4 C32.4,3.0627417 32.9372583,3.6 33.6,3.6 C34.2627417,3.6 34.8,3.0627417 34.8,2.4 C34.8,1.7372583 34.2627417,1.2 33.6,1.2 L33.6,1.2 Z" id="Shape"></path>
                <polygon id="Path" points="28.8 1.8 30 1.8 30 3 28.8 3"></polygon>
                <path d="M33.6,13.2 C32.2745166,13.2 31.2,12.1254834 31.2,10.8 C31.2,9.4745166 32.2745166,8.4 33.6,8.4 C34.9254834,8.4 36,9.4745166 36,10.8 C36,12.1254834 34.9254834,13.2 33.6,13.2 Z M33.6,9.6 C32.9372583,9.6 32.4,10.1372583 32.4,10.8 C32.4,11.4627417 32.9372583,12 33.6,12 C34.2627417,12 34.8,11.4627417 34.8,10.8 C34.8,10.1372583 34.2627417,9.6 33.6,9.6 Z" id="Shape"></path>
                <polygon id="Path" points="28.8 10.2 30 10.2 30 11.4 28.8 11.4"></polygon>
                <path d="M33.6,27 C32.2745166,27 31.2,25.9254834 31.2,24.6 C31.2,23.2745166 32.2745166,22.2 33.6,22.2 C34.9254834,22.2 36,23.2745166 36,24.6 C36,25.9254834 34.9254834,27 33.6,27 Z M33.6,23.4 C32.9372583,23.4 32.4,23.9372583 32.4,24.6 C32.4,25.2627417 32.9372583,25.8 33.6,25.8 C34.2627417,25.8 34.8,25.2627417 34.8,24.6 C34.8,23.9372583 34.2627417,23.4 33.6,23.4 Z" id="Shape"></path>
                <polygon id="Path" points="27.6 24 30 24 30 25.2 27.6 25.2"></polygon>
                <path d="M2.4,13.2 C1.0745166,13.2 0,12.1254834 0,10.8 C0,9.4745166 1.0745166,8.4 2.4,8.4 C3.7254834,8.4 4.8,9.4745166 4.8,10.8 C4.8,12.1254834 3.7254834,13.2 2.4,13.2 Z M2.4,9.6 C1.7372583,9.6 1.2,10.1372583 1.2,10.8 C1.2,11.4627417 1.7372583,12 2.4,12 C3.0627417,12 3.6,11.4627417 3.6,10.8 C3.6,10.1372583 3.0627417,9.6 2.4,9.6 Z" id="Shape"></path>
                <polygon id="Path" points="6 10.2 7.2 10.2 7.2 11.4 6 11.4"></polygon>
                <path d="M2.4,27 C1.0745166,27 0,25.9254834 0,24.6 C0,23.2745166 1.0745166,22.2 2.4,22.2 C3.7254834,22.2 4.8,23.2745166 4.8,24.6 C4.8,25.9254834 3.7254834,27 2.4,27 Z M2.4,23.4 C1.7372583,23.4 1.2,23.9372583 1.2,24.6 C1.2,25.2627417 1.7372583,25.8 2.4,25.8 C3.0627417,25.8 3.6,25.2627417 3.6,24.6 C3.6,23.9372583 3.0627417,23.4 2.4,23.4 Z" id="Shape"></path>
                <polygon id="Path" points="6 24 8.4 24 8.4 25.2 6 25.2"></polygon>
                <polygon id="Path" points="19.8 1.8 27.6 1.8 27.6 3 19.8 3"></polygon>
                <path d="M2.4,36 C1.0745166,36 0,34.9254834 0,33.6 C0,32.2745166 1.0745166,31.2 2.4,31.2 C3.7254834,31.2 4.8,32.2745166 4.8,33.6 C4.8,34.9254834 3.7254834,36 2.4,36 Z M2.4,32.4 C1.7372583,32.4 1.2,32.9372583 1.2,33.6 C1.2,34.2627417 1.7372583,34.8 2.4,34.8 C3.0627417,34.8 3.6,34.2627417 3.6,33.6 C3.6,32.9372583 3.0627417,32.4 2.4,32.4 Z" id="Shape"></path>
                <polygon id="Path" points="6 33 7.2 33 7.2 34.2 6 34.2"></polygon>
                <polygon id="Path" points="8.4 33 16.2 33 16.2 34.2 8.4 34.2"></polygon>
                <path d="M33.6,36 C32.2745166,36 31.2,34.9254834 31.2,33.6 C31.2,32.2745166 32.2745166,31.2 33.6,31.2 C34.9254834,31.2 36,32.2745166 36,33.6 C36,34.9254834 34.9254834,36 33.6,36 Z M33.6,32.4 C32.9372583,32.4 32.4,32.9372583 32.4,33.6 C32.4,34.2627417 32.9372583,34.8 33.6,34.8 C34.2627417,34.8 34.8,34.2627417 34.8,33.6 C34.8,32.9372583 34.2627417,32.4 33.6,32.4 Z" id="Shape"></path>
                <polygon id="Path" points="28.8 33 30 33 30 34.2 28.8 34.2"></polygon>
                <polygon id="Path" points="19.8 33 27.6 33 27.6 34.2 19.8 34.2"></polygon>
                <polygon id="Path" points="17.4 1.8 18.6 1.8 18.6 3 17.4 3"></polygon>
                <polygon id="Path" points="17.4 33 18.6 33 18.6 34.2 17.4 34.2"></polygon>
                <path d="M23.4,12.6 L23.4,10.8 C23.4,7.81766235 20.9823376,5.4 18,5.4 C15.0176624,5.4 12.6,7.81766235 12.6,10.8 L12.6,12.6 C10.9439681,12.6019837 9.60198367,13.9439681 9.6,15.6 L9.6,27.6 C9.60198367,29.2560319 10.9439681,30.5980163 12.6,30.6 L23.4,30.6 C25.0560319,30.5980163 26.3980163,29.2560319 26.4,27.6 L26.4,15.6 C26.3980163,13.9439681 25.0560319,12.6019837 23.4,12.6 L23.4,12.6 Z M13.8,10.8 C13.8,8.48040405 15.6804041,6.6 18,6.6 C20.3195959,6.6 22.2,8.48040405 22.2,10.8 L22.2,12.6 L13.8,12.6 L13.8,10.8 Z M25.2,27.6 C25.2,28.5941125 24.3941125,29.4 23.4,29.4 L12.6,29.4 C11.6058875,29.4 10.8,28.5941125 10.8,27.6 L10.8,15.6 C10.8,14.6058875 11.6058875,13.8 12.6,13.8 L23.4,13.8 C24.3941125,13.8 25.2,14.6058875 25.2,15.6 L25.2,27.6 Z" id="Shape"></path>
                <polygon id="Path" points="8.4 10.2 11.4 10.2 11.4 11.4 8.4 11.4"></polygon>
                <polygon id="Path" points="24.6 10.2 27.6 10.2 27.6 11.4 24.6 11.4"></polygon>
                <polygon id="Path" points="27.6 17.4 33.6 17.4 33.6 18.6 27.6 18.6"></polygon>
                <polygon id="Path" points="34.8 17.4 36 17.4 36 18.6 34.8 18.6"></polygon>
                <polygon id="Path" points="2.4 17.4 8.4 17.4 8.4 18.6 2.4 18.6"></polygon>
                <polygon id="Path" points="0 17.4 1.2 17.4 1.2 18.6 0 18.6"></polygon>
                <path d="M18.6,23.4 L19.8,23.4 L19.8,22.2 L18.6,22.2 L18.6,20.3148 C19.770184,20.0126598 20.5331551,18.887528 20.3808713,17.6885997 C20.2285874,16.4896714 19.2085609,15.59101 18,15.59101 C16.7914391,15.59101 15.7714126,16.4896714 15.6191287,17.6885997 C15.4668449,18.887528 16.229816,20.0126598 17.4,20.3148 L17.4,27 L18.6,27 L18.6,25.8 L19.8,25.8 L19.8,24.6 L18.6,24.6 L18.6,23.4 Z M16.8,18 C16.8,17.3372583 17.3372583,16.8 18,16.8 C18.6627417,16.8 19.2,17.3372583 19.2,18 C19.2,18.6627417 18.6627417,19.2 18,19.2 C17.3372583,19.2 16.8,18.6627417 16.8,18 Z" id="Shape"></path>
            </g>
        </g>
    </g>
</svg>