<?xml version="1.0" encoding="UTF-8"?>
<svg width="39px" height="36px" viewBox="0 0 39 36" version="1.1" xmlns="http://www.w3.org/2000/svg" xmlns:xlink="http://www.w3.org/1999/xlink">
    <title>26D62A8C-FFF5-46C8-A0CD-8193ED66BD94mdpi/</title>
    <g id="Page-1" stroke="none" stroke-width="1" fill="none" fill-rule="evenodd">
        <g id="ms3" transform="translate(-701.000000, -239.000000)" fill="#000000" fill-rule="nonzero">
            <g id="data-encryption-copy" transform="translate(701.000000, 239.000000)">
                <path d="M35.4,30 L34.8,30 L34.8,12.6 C34.7980163,10.9439681 33.4560319,9.60198367 31.8,9.6 L25.2,9.6 L25.2,9 C25.1980163,7.34396811 23.8560319,6.00198367 22.2,6 L22.2,4.2 C22.2,1.88040405 20.3195959,0 18,0 C15.6804041,0 13.8,1.88040405 13.8,4.2 L13.8,6 C12.1439681,6.00198367 10.8019837,7.34396811 10.8,9 L10.8,9.6 L4.2,9.6 C2.54396811,9.60198367 1.20198367,10.9439681 1.2,12.6 L1.2,30 L0.6,30 C0.26862915,30 0,30.2686292 0,30.6 L0,33 C0.0019836698,34.6560319 1.34396811,35.9980163 3,36 L33,36 C34.6560319,35.9980163 35.9980163,34.6560319 36,33 L36,30.6 C36,30.2686292 35.7313708,30 35.4,30 Z M13.8,20.4 L22.2,20.4 C23.8560319,20.3980163 25.1980163,19.0560319 25.2,17.4 L25.2,13.2 L31.2,13.2 L31.2,27.6 L4.8,27.6 L4.8,13.2 L10.8,13.2 L10.8,17.4 C10.8019837,19.0560319 12.1439681,20.3980163 13.8,20.4 Z M15,4.2 C15,2.54314575 16.3431458,1.2 18,1.2 C19.6568542,1.2 21,2.54314575 21,4.2 L21,6 L15,6 L15,4.2 Z M12,9 C12,8.00588745 12.8058875,7.2 13.8,7.2 L22.2,7.2 C23.1941125,7.2 24,8.00588745 24,9 L24,17.4 C24,18.3941125 23.1941125,19.2 22.2,19.2 L13.8,19.2 C12.8058875,19.2 12,18.3941125 12,17.4 L12,9 Z M2.4,12.6 C2.4,11.6058875 3.20588745,10.8 4.2,10.8 L10.8,10.8 L10.8,12 L4.2,12 C3.86862915,12 3.6,12.2686292 3.6,12.6 L3.6,28.2 C3.6,28.5313708 3.86862915,28.8 4.2,28.8 L31.8,28.8 C32.1313708,28.8 32.4,28.5313708 32.4,28.2 L32.4,12.6 C32.4,12.2686292 32.1313708,12 31.8,12 L25.2,12 L25.2,10.8 L31.8,10.8 C32.7941125,10.8 33.6,11.6058875 33.6,12.6 L33.6,30 L22.8,30 C22.4686292,30 22.2,30.2686292 22.2,30.6 L22.2,31.8 C22.2,32.1313708 21.9313708,32.4 21.6,32.4 L14.4,32.4 C14.0686292,32.4 13.8,32.1313708 13.8,31.8 L13.8,30.6 C13.8,30.2686292 13.5313708,30 13.2,30 L2.4,30 L2.4,12.6 Z M34.8,33 C34.8,33.9941125 33.9941125,34.8 33,34.8 L3,34.8 C2.00588745,34.8 1.2,33.9941125 1.2,33 L1.2,31.2 L12.6,31.2 L12.6,31.8 C12.6,32.7941125 13.4058875,33.6 14.4,33.6 L21.6,33.6 C22.5941125,33.6 23.4,32.7941125 23.4,31.8 L23.4,31.2 L34.8,31.2 L34.8,33 Z" id="Shape"></path>
                <path d="M19.475,13.1148 L19.475,18 L20.675,18 L20.675,17.4 L21.875,17.4 L21.875,16.2 L20.675,16.2 L20.675,15.6 L21.875,15.6 L21.875,14.4 L20.675,14.4 L20.675,13.1148 C21.845184,12.8126598 22.6081551,11.687528 22.4558713,10.4885997 C22.3035874,9.28967141 21.2835609,8.39100999 20.075,8.39100999 C18.8664391,8.39100999 17.8464126,9.28967141 17.6941287,10.4885997 C17.5418449,11.687528 18.304816,12.8126598 19.475,13.1148 Z M20.075,9.6 C20.7377417,9.6 21.275,10.1372583 21.275,10.8 C21.275,11.4627417 20.7377417,12 20.075,12 C19.4122583,12 18.875,11.4627417 18.875,10.8 C18.875,10.1372583 19.4122583,9.6 20.075,9.6 Z" id="Shape"></path>
                <path d="M29.3234,2.4 L34.5854,2.4 C34.8776218,3.22652801 35.7227997,3.72232325 36.5868398,3.57407741 C37.4508799,3.42583156 38.0824563,2.67666534 38.0824563,1.8 C38.0824563,0.923334658 37.4508799,0.174168437 36.5868398,0.0259225926 C35.7227997,-0.122323251 34.8776218,0.373471989 34.5854,1.2 L28.8254,1.2 L26.2508,3.7758 L27.0992,4.6242 L29.3234,2.4 Z M36.275,1.2 C36.6063708,1.2 36.875,1.46862915 36.875,1.8 C36.875,2.13137085 36.6063708,2.4 36.275,2.4 C35.9436292,2.4 35.675,2.13137085 35.675,1.8 C35.675,1.46862915 35.9436292,1.2 36.275,1.2 Z" id="Shape"></path>
                <path d="M32.1854,6 L28.475,6 L28.475,7.2 L32.1854,7.2 C32.4776218,8.02652801 33.3227997,8.52232325 34.1868398,8.37407741 C35.0508799,8.22583156 35.6824563,7.47666534 35.6824563,6.6 C35.6824563,5.72333466 35.0508799,4.97416844 34.1868398,4.82592259 C33.3227997,4.67767675 32.4776218,5.17347199 32.1854,6 L32.1854,6 Z M34.475,6.6 C34.475,6.93137085 34.2063708,7.2 33.875,7.2 C33.5436292,7.2 33.275,6.93137085 33.275,6.6 C33.275,6.26862915 33.5436292,6 33.875,6 C34.2063708,6 34.475,6.26862915 34.475,6.6 Z" id="Shape"></path>
                <path d="M3.875,3.6 C4.63507126,3.59684916 5.31124727,3.11661052 5.5646,2.4 L10.8266,2.4 L13.0508,4.6242 L13.8992,3.7758 L11.3234,1.2 L5.5634,1.2 C5.25673618,0.339108099 4.35278435,-0.15451309 3.46275178,0.0528985358 C2.57271921,0.260310161 1.98010628,1.10268817 2.08560839,2.01045844 C2.19111049,2.91822871 2.96112225,3.60224091 3.875,3.6 Z M3.875,1.2 C4.20637085,1.2 4.475,1.46862915 4.475,1.8 C4.475,2.13137085 4.20637085,2.4 3.875,2.4 C3.54362915,2.4 3.275,2.13137085 3.275,1.8 C3.275,1.46862915 3.54362915,1.2 3.875,1.2 Z" id="Shape"></path>
                <path d="M6.275,4.79998433 C5.35867525,4.79620698 4.58574886,5.48140819 4.47965467,6.39157821 C4.37356047,7.30174823 4.9681643,8.14635594 5.86079422,8.35342417 C6.75342415,8.56049241 7.65914795,8.06392389 7.9646,7.2 L11.675,7.2 L11.675,6 L7.9646,6 C7.71124727,5.28338948 7.03507126,4.80315084 6.275,4.79998433 L6.275,4.79998433 Z M6.275,7.2 C5.94362915,7.2 5.675,6.93137085 5.675,6.6 C5.675,6.26862915 5.94362915,6 6.275,6 C6.60637085,6 6.875,6.26862915 6.875,6.6 C6.875,6.93137085 6.60637085,7.2 6.275,7.2 Z" id="Shape"></path>
                <path d="M29.675,21.7104 C28.848472,22.0026218 28.3526767,22.8477997 28.5009226,23.7118398 C28.6491684,24.5758799 29.3983347,25.2074563 30.275,25.2074563 C31.1516653,25.2074563 31.9008316,24.5758799 32.0490774,23.7118398 C32.1973233,22.8477997 31.701528,22.0026218 30.875,21.7104 L30.875,17.079 L28.808,15.699 L28.142,16.6974 L29.675,17.721 L29.675,21.7104 Z M30.275,24 C29.9436292,24 29.675,23.7313708 29.675,23.4 C29.675,23.0686292 29.9436292,22.8 30.275,22.8 C30.6063708,22.8 30.875,23.0686292 30.875,23.4 C30.875,23.7313708 30.6063708,24 30.275,24 Z" id="Shape"></path>
                <path d="M11.8646,16.7694 L11.4854,15.6294 L9.275,16.3674 L9.275,21.7074 C8.44847199,21.9996218 7.95267675,22.8447997 8.10092259,23.7088398 C8.24916844,24.5728799 8.99833466,25.2044563 9.875,25.2044563 C10.7516653,25.2044563 11.5008316,24.5728799 11.6490774,23.7088398 C11.7973233,22.8447997 11.301528,21.9996218 10.475,21.7074 L10.475,17.2326 L11.8646,16.7694 Z M9.875,24 C9.54362915,24 9.275,23.7313708 9.275,23.4 C9.275,23.0686292 9.54362915,22.8 9.875,22.8 C10.2063708,22.8 10.475,23.0686292 10.475,23.4 C10.475,23.7313708 10.2063708,24 9.875,24 Z" id="Shape"></path>
                <path d="M17.075,26.4000033 C17.9506624,26.4016592 18.6998486,25.7715071 18.8482324,24.9085068 C18.9966162,24.0455065 18.5009285,23.2013114 17.675,22.9104 L17.675,21.6 L16.475,21.6 L16.475,22.9104 C15.6490715,23.2013114 15.1533838,24.0455065 15.3017676,24.9085068 C15.4501514,25.7715071 16.1993376,26.4016592 17.075,26.4000033 Z M17.075,24 C17.4063708,24 17.675,24.2686292 17.675,24.6 C17.675,24.9313708 17.4063708,25.2 17.075,25.2 C16.7436292,25.2 16.475,24.9313708 16.475,24.6 C16.475,24.2686292 16.7436292,24 17.075,24 Z" id="Shape"></path>
                <path d="M23.075,26.4000033 C23.9506624,26.4016592 24.6998486,25.7715071 24.8482324,24.9085068 C24.9966162,24.0455065 24.5009285,23.2013114 23.675,22.9104 L23.675,21.6 L22.475,21.6 L22.475,22.9104 C21.6490715,23.2013114 21.1533838,24.0455065 21.3017676,24.9085068 C21.4501514,25.7715071 22.1993376,26.4016592 23.075,26.4000033 Z M23.075,24 C23.4063708,24 23.675,24.2686292 23.675,24.6 C23.675,24.9313708 23.4063708,25.2 23.075,25.2 C22.7436292,25.2 22.475,24.9313708 22.475,24.6 C22.475,24.2686292 22.7436292,24 23.075,24 Z" id="Shape"></path>
            </g>
        </g>
    </g>
</svg>