<svg xmlns="http://www.w3.org/2000/svg" xmlns:xlink="http://www.w3.org/1999/xlink" xmlns:lucid="lucid" width="560" height="543.33"><g transform="translate(-170 -60)" lucid:page-tab-id="0_0"><path d="M240 146c0-3.3 2.7-6 6-6h128c3.3 0 6 2.7 6 6v108c0 3.3-2.7 6-6 6H246c-3.3 0-6-2.7-6-6z" stroke="#0c7cba" stroke-width="3" fill="#b2d6ef"/><use xlink:href="#a" transform="matrix(1,0,0,1,245,145) translate(32.407407407407405 59.02777777777778)"/><use xlink:href="#b" transform="matrix(1,0,0,1,245,145) translate(81.60493827160494 59.02777777777778)"/><path d="M520 146c0-3.3 2.7-6 6-6h128c3.3 0 6 2.7 6 6v108c0 3.3-2.7 6-6 6H526c-3.3 0-6-2.7-6-6z" stroke="#0c7cba" stroke-width="3" fill="#b2d6ef"/><use xlink:href="#a" transform="matrix(1,0,0,1,525,145) translate(32.407407407407405 59.02777777777778)"/><use xlink:href="#c" transform="matrix(1,0,0,1,525,145) translate(81.60493827160494 59.02777777777778)"/><path d="M240 406c0-3.3 2.7-6 6-6h128c3.3 0 6 2.7 6 6v108c0 3.3-2.7 6-6 6H246c-3.3 0-6-2.7-6-6z" stroke="#0c7cba" stroke-width="3" fill="#b2d6ef"/><use xlink:href="#a" transform="matrix(1,0,0,1,245,405) translate(32.407407407407405 59.02777777777778)"/><use xlink:href="#d" transform="matrix(1,0,0,1,245,405) translate(81.60493827160494 59.02777777777778)"/><path d="M310 263.5v112.26" stroke="#5e5e5e" stroke-width="4" fill="none"/><path d="M312 263.55h-4v-2.05h4z" fill="#5e5e5e"/><path d="M310 392.03l-4.64-14.27h9.28z" stroke="#5e5e5e" stroke-width="4" fill="#5e5e5e"/><path d="M383.5 200h112.26" stroke="#5e5e5e" stroke-width="4" fill="none"/><path d="M383.55 202h-2.05v-4h2.05z" fill="#5e5e5e"/><path d="M512.03 200l-14.27 4.64v-9.28z" stroke="#5e5e5e" stroke-width="4" fill="#5e5e5e"/><path d="M590 263.5v152.26" stroke="#5e5e5e" stroke-width="4" fill="none"/><path d="M592 263.55h-4v-2.05h4z" fill="#5e5e5e"/><path d="M590 432.03l-4.64-14.27h9.28z" stroke="#5e5e5e" stroke-width="4" fill="#5e5e5e"/><path d="M566.5 460H404.24" stroke="#5e5e5e" stroke-width="4" fill="none"/><path d="M568.5 459.93l.06 1.68.07.4h-2.18v-4h2.3z" fill="#5e5e5e"/><path d="M387.97 460l14.27-4.64v9.28z" stroke="#5e5e5e" stroke-width="4" fill="#5e5e5e"/><path d="M610 460c0 11.05-8.95 20-20 20s-20-8.95-20-20 8.95-20 20-20 20 8.95 20 20zm-34.14-14.14l28.28 28.28m-28.28 0l28.28-28.28" stroke="#c92d39" stroke-width="3" fill="#fff"/><path d="M190 86c0-3.3 2.7-6 6-6h228c3.3 0 6 2.7 6 6v51.33c0 3.32-2.7 6-6 6H196c-3.3 0-6-2.68-6-6z" stroke="#000" stroke-opacity="0" stroke-width="3" fill="#fff" fill-opacity="0"/><use xlink:href="#e" transform="matrix(1,0,0,1,195,85) translate(46.32215711805556 22.746093749999996)"/><use xlink:href="#f" transform="matrix(1,0,0,1,195,85) translate(111.66612413194444 22.746093749999996)"/><use xlink:href="#g" transform="matrix(1,0,0,1,195,85) translate(171.67588975694446 22.746093749999996)"/><use xlink:href="#e" transform="matrix(1,0,0,1,195,85) translate(46.32215711805556 42.74609374999999)"/><use xlink:href="#f" transform="matrix(1,0,0,1,195,85) translate(111.66612413194444 42.74609374999999)"/><use xlink:href="#h" transform="matrix(1,0,0,1,195,85) translate(171.67588975694446 42.74609374999999)"/><path d="M470 86c0-3.3 2.7-6 6-6h228c3.3 0 6 2.7 6 6v51.33c0 3.32-2.7 6-6 6H476c-3.3 0-6-2.68-6-6z" stroke="#000" stroke-opacity="0" stroke-width="3" fill="#fff" fill-opacity="0"/><g><use xlink:href="#e" transform="matrix(1,0,0,1,475,85) translate(52.32313368055556 22.746093749999996)"/><use xlink:href="#i" transform="matrix(1,0,0,1,475,85) translate(117.66710069444444 22.746093749999996)"/><use xlink:href="#j" transform="matrix(1,0,0,1,475,85) translate(165.67491319444446 22.746093749999996)"/><use xlink:href="#k" transform="matrix(1,0,0,1,475,85) translate(51.65635850694445 42.74609374999999)"/><use xlink:href="#f" transform="matrix(1,0,0,1,475,85) translate(106.33192274305556 42.74609374999999)"/><use xlink:href="#h" transform="matrix(1,0,0,1,475,85) translate(166.34168836805554 42.74609374999999)"/></g><path d="M190 526c0-3.3 2.7-6 6-6h228c3.3 0 6 2.7 6 6v51.33c0 3.32-2.7 6-6 6H196c-3.3 0-6-2.68-6-6z" stroke="#000" stroke-opacity="0" stroke-width="3" fill="#fff" fill-opacity="0"/><g><use xlink:href="#e" transform="matrix(1,0,0,1,195,525) translate(52.32313368055556 22.746093749999996)"/><use xlink:href="#i" transform="matrix(1,0,0,1,195,525) translate(117.66710069444444 22.746093749999996)"/><use xlink:href="#j" transform="matrix(1,0,0,1,195,525) translate(165.67491319444446 22.746093749999996)"/><use xlink:href="#k" transform="matrix(1,0,0,1,195,525) translate(57.65733506944445 42.74609374999999)"/><use xlink:href="#i" transform="matrix(1,0,0,1,195,525) translate(112.33289930555556 42.74609374999999)"/><use xlink:href="#l" transform="matrix(1,0,0,1,195,525) translate(160.34071180555554 42.74609374999999)"/></g><defs><path fill="#333" d="M199 0l-22-63H83L61 0H9l90-248h61L250 0h-51zm-33-102l-36-108c-10 38-24 72-36 108h72" id="m"/><path fill="#333" d="M135-194c53 0 70 44 70 98 0 56-19 98-73 100-31 1-45-17-59-34 3 33 2 69 2 105H25l-1-265h48c2 10 0 23 3 31 11-24 29-35 60-35zM114-30c33 0 39-31 40-66 0-38-9-64-40-64-56 0-55 130 0 130" id="n"/><g id="a"><use transform="matrix(0.06172839506172839,0,0,0.06172839506172839,0,0)" xlink:href="#m"/><use transform="matrix(0.06172839506172839,0,0,0.06172839506172839,15.987654320987653,0)" xlink:href="#n"/><use transform="matrix(0.06172839506172839,0,0,0.06172839506172839,29.50617283950617,0)" xlink:href="#n"/></g><use transform="matrix(0.06172839506172839,0,0,0.06172839506172839,0,0)" xlink:href="#m" id="b"/><path fill="#333" d="M182-130c37 4 62 22 62 59C244 23 116-4 24 0v-248c84 5 203-23 205 63 0 31-19 50-47 55zM76-148c40-3 101 13 101-30 0-44-60-28-101-31v61zm0 110c48-3 116 14 116-37 0-48-69-32-116-35v72" id="o"/><use transform="matrix(0.06172839506172839,0,0,0.06172839506172839,0,0)" xlink:href="#o" id="c"/><path fill="#333" d="M67-125c0 53 21 87 73 88 37 1 54-22 65-47l45 17C233-25 199 4 140 4 58 4 20-42 15-125 8-235 124-281 211-232c18 10 29 29 36 50l-46 12c-8-25-30-41-62-41-52 0-71 34-72 86" id="p"/><use transform="matrix(0.06172839506172839,0,0,0.06172839506172839,0,0)" xlink:href="#p" id="d"/><path fill="#333" d="M1000-272c3 95 12 159 101 161 21 0 41-3 59-7V-6c-44 10-86 16-139 16-141 2-191-84-197-217h-6C748-76 648 20 446 20c-207 0-318-120-318-322 0-266 194-348 454-354l236-4c12-191-40-305-222-305-140 0-220 47-232 172l-188-17c33-204 181-292 423-292 255 0 401 118 401 364v466zm-683-27c0 109 63 184 175 182 166-3 259-96 306-217 24-65 20-120 20-200-232 7-501-28-501 235" id="q"/><path fill="#333" d="M736-142h380V0H134v-142h422v-1200H267v-142h469v1342" id="r"/><path fill="#333" d="M615-1102c343 0 484 203 482 560-1 347-147 562-488 562-336 0-475-219-479-562-4-349 156-560 485-560zm-8 989c240 0 301-180 301-429 0-245-55-427-290-427-236 0-299 181-299 427 0 243 61 429 288 429" id="s"/><path fill="#333" d="M1018 0H814c-67-224-138-444-200-673C552-442 476-224 407 0H204L21-1082h178c43 310 105 601 126 933 54-225 128-425 193-638h193c63 212 134 415 185 638 22-336 90-622 136-933h176" id="t"/><g id="e"><use transform="matrix(0.008680555555555554,0,0,0.008680555555555554,0,0)" xlink:href="#q"/><use transform="matrix(0.008680555555555554,0,0,0.008680555555555554,10.668402777777777,0)" xlink:href="#r"/><use transform="matrix(0.008680555555555554,0,0,0.008680555555555554,21.336805555555554,0)" xlink:href="#r"/><use transform="matrix(0.008680555555555554,0,0,0.008680555555555554,32.00520833333333,0)" xlink:href="#s"/><use transform="matrix(0.008680555555555554,0,0,0.008680555555555554,42.67361111111111,0)" xlink:href="#t"/></g><path fill="#333" d="M802-909c-3-189-2-383-2-575h281v1248c-1 83 4 168 8 236H817c-9-50-14-117-15-176h-4C735-49 651 20 482 20 191 20 97-238 97-539c0-243 66-432 221-519 50-28 108-42 175-42 162 2 253 78 309 191zm-70 658c91-113 93-462 2-584-46-61-145-100-224-53-96 56-119 190-120 349 0 123 17 214 52 275 46 82 130 115 222 74 25-12 46-33 68-61" id="u"/><path fill="#333" d="M1113-274C1038-96 884 20 626 20c-352 0-526-209-526-566 0-358 185-556 530-556 358 0 496 251 499 615H395c5 180 68 319 245 319 102 0 186-45 208-129zM857-663c-6-177-128-307-315-247-94 30-141 121-145 247h460" id="v"/><path fill="#333" d="M622-916c-112 2-200 14-200 111 0 90 89 101 168 121 234 58 514 77 514 368C1104-4 751 54 434 5 267-21 161-112 121-270l247-37c24 111 113 145 252 141 114-3 226-12 226-124 0-101-103-113-192-134-225-54-490-76-490-351 0-247 201-328 458-328 245 0 413 88 457 292l-249 26c-16-98-92-133-208-131" id="w"/><path fill="#333" d="M711 13c-250 0-386-99-385-349l2-556H161v-190h181l88-282h176v282h385v190H606v530c-10 130 45 186 174 184 91-2 176-11 255-27v186C933-1 833 13 711 13" id="x"/><g id="f"><use transform="matrix(0.009765624999999998,0,0,0.009765624999999998,0,0)" xlink:href="#u"/><use transform="matrix(0.009765624999999998,0,0,0.009765624999999998,12.001953124999998,0)" xlink:href="#v"/><use transform="matrix(0.009765624999999998,0,0,0.009765624999999998,24.003906249999996,0)" xlink:href="#w"/><use transform="matrix(0.009765624999999998,0,0,0.009765624999999998,36.00585937499999,0)" xlink:href="#x"/></g><path fill="#333" d="M836-709c204 20 350 118 350 324C1186-112 992 0 719 0H137v-1349h525c258 3 443 87 443 339 0 176-107 269-269 301zM643-811c107 0 165-53 165-159 0-113-61-160-167-160H432v319h211zm46 592c128-1 201-59 200-191-1-128-80-183-207-183H432v374h257" id="y"/><use transform="matrix(0.009765624999999998,0,0,0.009765624999999998,0,0)" xlink:href="#y" id="g"/><path fill="#333" d="M872-915c-35-112-84-223-220-223-91 0-156 41-204 116-89 137-87 550 2 688 51 79 116 122 209 122 150 0 197-126 240-244l273 52C1094-168 961 20 656 20 239 20 80-262 80-681c0-418 154-689 568-689 289 0 425 167 496 389" id="z"/><use transform="matrix(0.009765624999999998,0,0,0.009765624999999998,0,0)" xlink:href="#z" id="h"/><path fill="#333" d="M875-1102c70 0 148 7 206 17v237c-110-17-267-37-359 15-123 69-192 207-192 395V0H250c-10-367 32-789-52-1082h271c19 69 36 149 46 228h4c52-151 151-250 356-248" id="A"/><path fill="#333" d="M1109-360C1066-122 902 20 624 20c-347 0-514-209-514-555 0-353 168-567 518-567 270 0 425 136 473 361l-283 14c-16-106-75-183-196-182-75 0-130 31-165 93s-52 152-52 270c0 249 74 374 221 374 120 0 188-82 201-201" id="B"/><g id="i"><use transform="matrix(0.009765624999999998,0,0,0.009765624999999998,0,0)" xlink:href="#w"/><use transform="matrix(0.009765624999999998,0,0,0.009765624999999998,12.001953124999998,0)" xlink:href="#A"/><use transform="matrix(0.009765624999999998,0,0,0.009765624999999998,24.003906249999996,0)" xlink:href="#B"/></g><path fill="#333" d="M1229 0H935l-92-330H387L295 0H0l443-1349h344zM615-1167c-46 213-110 412-166 615h332c-56-204-119-401-166-615" id="C"/><use transform="matrix(0.009765624999999998,0,0,0.009765624999999998,0,0)" xlink:href="#C" id="j"/><path fill="#c92d39" d="M865-914c-3-187-2-380-2-570h180v1261c0 76 1 155 6 223H877c-8-49-9-116-10-174h-5C801-44 708 26 530 26c-135 0-234-46-297-139s-95-232-95-419c0-377 131-566 392-566 176 0 271 63 335 184zm-286-51c-222 0-255 197-255 427 0 229 31 425 253 425 237 0 286-195 286-441 0-238-52-411-284-411" id="D"/><path fill="#c92d39" d="M617-1102c355 0 481 238 477 599H322c5 222 84 388 301 388 144 0 244-59 284-166l158 45C1002-72 854 20 623 20c-342 0-490-220-490-568 0-346 151-554 484-554zm291 461c-18-192-90-328-289-328-194 0-287 128-295 328h584" id="E"/><path fill="#c92d39" d="M706-1102c241 0 344 136 343 381V0H868v-695c1-168-57-273-220-268-190 6-283 138-283 336V0H185c-3-360 6-732-6-1082h170c4 54 7 126 8 185h3c63-121 164-204 346-205" id="F"/><path fill="#c92d39" d="M168 279c222 39 310-114 368-290L66-1082h192c120 299 249 590 362 896 115-301 235-597 351-896h190L705 0c-65 164-130 320-275 396-67 36-177 35-262 18V279" id="G"/><g id="k"><use transform="matrix(0.008680555555555554,0,0,0.008680555555555554,0,0)" xlink:href="#D"/><use transform="matrix(0.008680555555555554,0,0,0.008680555555555554,10.668402777777777,0)" xlink:href="#E"/><use transform="matrix(0.008680555555555554,0,0,0.008680555555555554,21.336805555555554,0)" xlink:href="#F"/><use transform="matrix(0.008680555555555554,0,0,0.008680555555555554,32.00520833333333,0)" xlink:href="#G"/></g><use transform="matrix(0.009765624999999998,0,0,0.009765624999999998,0,0)" xlink:href="#y" id="l"/></defs></g></svg>