<?xml version="1.0" encoding="UTF-8"?>
<svg width="36px" height="36px" viewBox="0 0 36 36" version="1.1" xmlns="http://www.w3.org/2000/svg" xmlns:xlink="http://www.w3.org/1999/xlink">
    <title>6AC37903-E040-419B-9B11-434DDE76AC89xhdpi/</title>
    <g id="Page-1" stroke="none" stroke-width="1" fill="none" fill-rule="evenodd">
        <g id="ms3" transform="translate(-142.000000, -162.000000)" fill="#DFA24A" fill-rule="nonzero">
            <g id="secure-data" transform="translate(142.000000, 162.000000)">
                <path d="M4.19997656,2.39997656 L3.6,2.39997656 C3.26861719,2.39997656 3.00002344,2.66857031 3.00002344,2.99995313 C3.00002344,3.33133594 3.26861719,3.6 3.6,3.6 L4.19997656,3.6 C4.53135937,3.6 4.79995313,3.33140625 4.79995313,3.00002344 C4.79995313,2.66864063 4.53135937,2.39997656 4.19997656,2.39997656 Z" id="Path"></path>
                <path d="M7.2,2.39997656 L6.60002344,2.39997656 C6.26864063,2.39997656 6.00004688,2.66857031 6.00004688,2.99995313 C6.00004688,3.33133594 6.26871094,3.59992969 6.60002344,3.59992969 L7.2,3.59992969 C7.53138281,3.59992969 7.79997656,3.33133594 7.79997656,2.99995313 C7.79997656,2.66857031 7.53138281,2.39997656 7.2,2.39997656 Z" id="Path"></path>
                <path d="M10.2000234,2.39997656 L9.60004688,2.39997656 C9.26866406,2.39997656 9.00007031,2.66857031 9.00007031,2.99995313 C9.00007031,3.33133594 9.26866406,3.59992969 9.60004688,3.59992969 L10.2000234,3.59992969 C10.5314062,3.59992969 10.8,3.33133594 10.8,2.99995313 C10.8,2.66857031 10.5313359,2.39997656 10.2000234,2.39997656 Z" id="Path"></path>
                <path d="M28.8,2.39997656 L12.6,2.39997656 C12.2686172,2.39997656 12.0000234,2.66857031 12.0000234,2.99995313 C12.0000234,3.33133594 12.2686172,3.59992969 12.6,3.59992969 L28.8,3.59992969 C29.1313828,3.59992969 29.3999766,3.33133594 29.3999766,2.99995313 C29.3999766,2.66857031 29.1313828,2.39997656 28.8,2.39997656 Z" id="Path"></path>
                <path d="M34.7999766,21.6 L34.2,21.6 L34.2,18.5999766 C34.1995078,16.92 33.555375,15.3040078 32.4,14.0843672 L32.4,3.00002344 C32.3980313,1.34395313 31.0560469,0.00196875 29.3999766,0 L3.00002344,0 C1.34395313,0.00196875 0.00196875,1.34395313 0,3.00002344 L0,27 C0.00196875,28.656 1.34395313,29.9979844 3.00002344,30.0000234 L19.2000234,30.0000234 L19.2000234,31.8000234 C19.2026953,34.1185078 21.0815156,35.9973984 23.4,36 L31.8000234,36 C34.1185078,35.9973281 35.9973984,34.1185078 36,31.8000234 L36,22.8000234 C36,22.1372578 35.4627422,21.6 34.7999766,21.6 Z M32.9999766,18.5999766 L32.9999766,21.6 L22.1999766,21.6 L22.1999766,18.5999766 C22.1999766,15.6176719 24.6176719,13.1999766 27.5999766,13.1999766 C30.5822813,13.1999766 32.9999766,15.6176719 32.9999766,18.5999766 Z M1.20002344,3.00002344 C1.20002344,2.00594531 2.00594531,1.20002344 3.00002344,1.20002344 L29.4000469,1.20002344 C30.394125,1.20002344 31.2000469,2.00594531 31.2000469,3.00002344 L31.2000469,4.80002344 L1.20002344,4.80002344 L1.20002344,3.00002344 Z M19.2000234,22.8000234 L19.2000234,28.8 L3.00002344,28.8 C2.00594531,28.8 1.20002344,27.9940781 1.20002344,27 L1.20002344,5.99997656 L31.2000469,5.99997656 L31.2000469,13.0751719 C29.1730078,11.7492187 26.5820625,11.6417812 24.4522266,12.7953984 C22.3223906,13.9490156 20.9968594,16.1777812 21.0000234,18.5999766 L21.0000234,21.6 L20.4000469,21.6 C19.7372813,21.6 19.2000234,22.1372578 19.2000234,22.8000234 Z M34.8000469,23.9999766 L32.9999766,23.9999766 C32.6685937,23.9999766 32.4,24.2685703 32.4,24.5999531 C32.4,24.9313359 32.6685937,25.1999297 32.9999766,25.1999297 L34.8000469,25.1999297 L34.8000469,26.3999531 L32.9999766,26.3999531 C32.6685937,26.3999531 32.4,26.6685469 32.4,26.9999297 C32.4,27.3313125 32.6685937,27.5999063 32.9999766,27.5999063 L34.8000469,27.5999063 L34.8000469,28.8 L32.9999766,28.8 C32.6685937,28.8 32.4,29.0685937 32.4,29.3999766 C32.4,29.7313594 32.6685937,29.9999531 32.9999766,29.9999531 L34.8000469,29.9999531 L34.8000469,31.1999766 L32.9999766,31.1999766 C32.6685937,31.1999766 32.4,31.4686406 32.4,31.7999531 C32.4,32.1313359 32.6685937,32.3999297 32.9999766,32.3999297 L34.74,32.3999297 C34.4529141,33.7957734 33.2250469,34.7981484 31.8000234,34.7999062 L23.4,34.7999062 C21.9749766,34.7980781 20.7470391,33.7957734 20.4600234,32.3999297 L22.2000469,32.3999297 C22.5314297,32.3999297 22.8000234,32.1312656 22.8000234,31.7999531 C22.8000234,31.4685703 22.5314297,31.1999766 22.2000469,31.1999766 L20.4000469,31.1999766 L20.4000469,29.9999531 L22.2000469,29.9999531 C22.5314297,29.9999531 22.8000234,29.7313594 22.8000234,29.3999766 C22.8000234,29.0685937 22.5314297,28.8 22.2000469,28.8 L20.4000469,28.8 L20.4000469,27.5999766 L22.2000469,27.5999766 C22.5314297,27.5999766 22.8000234,27.3313828 22.8000234,27 C22.8000234,26.6686172 22.5314297,26.4000234 22.2000469,26.4000234 L20.4000469,26.4000234 L20.4000469,25.2 L22.2000469,25.2 C22.5314297,25.2 22.8000234,24.9314062 22.8000234,24.6000234 C22.8000234,24.2686406 22.5314297,24.0000469 22.2000469,24.0000469 L20.4000469,24.0000469 L20.4000469,22.8000234 L34.8000469,22.8000234 L34.8000469,23.9999766 L34.8000469,23.9999766 Z" id="Shape"></path>
                <path d="M27,29.2895859 L27,30.6 C27,30.9313828 27.2686641,31.1999766 27.5999766,31.1999766 C27.9313594,31.1999766 28.1999531,30.9313828 28.1999531,30.6 L28.1999531,29.2895859 C29.0259141,28.9987031 29.5215469,28.1544609 29.3731875,27.2914453 C29.2248281,26.4284297 28.4756484,25.7982891 27.5999766,25.7999732 C26.7243047,25.7982891 25.975125,26.4285 25.8267656,27.2914453 C25.6784063,28.1544609 26.1740391,28.9987031 27,29.2895859 Z M27.5999766,27 C27.9313594,27 28.1999531,27.2686641 28.1999531,27.5999766 C28.1999531,27.9313594 27.9312891,28.1999531 27.5999766,28.1999531 C27.2685938,28.1999531 27,27.9312891 27,27.5999766 C27,27.2686641 27.2686641,27 27.5999766,27 Z" id="Shape"></path>
                <path d="M10.2000234,12.0000234 C9.86864063,12.0000234 9.60004688,12.2686172 9.60004688,12.6 L9.60004688,14.4 L4.80002344,14.4 L4.80002344,9.59997656 L7.2,9.59997656 C7.53138281,9.59997656 7.79997656,9.33138281 7.79997656,9 C7.79997656,8.66861719 7.53138281,8.40002344 7.2,8.40002344 L4.80002344,8.40002344 C4.13725781,8.40002344 3.6,8.93728125 3.6,9.60004688 L3.6,14.4 C3.6,15.0627656 4.13725781,15.6000234 4.80002344,15.6000234 L9.60004688,15.6000234 C10.2628125,15.6000234 10.8000703,15.0627656 10.8000703,14.4 L10.8000703,12.6 C10.8000703,12.2686172 10.5313359,12.0000234 10.2000234,12.0000234 Z" id="Path"></path>
                <path d="M6.42417187,10.9757813 C6.18876563,10.7483906 5.81449219,10.751625 5.58309375,10.9830938 C5.351625,11.2145625 5.34839062,11.5887656 5.57578125,11.8241719 L6.77580469,13.0241953 C6.88830469,13.1366953 7.04088281,13.1999766 7.2,13.1999766 L7.227,13.1999766 C7.39532812,13.1924531 7.55275781,13.1145469 7.66082813,12.9851719 L10.6608516,9.38517188 C10.7982422,9.22057031 10.8374062,8.99514844 10.7635078,8.79377344 C10.6896094,8.59246875 10.5139687,8.44586719 10.3026797,8.40916406 C10.0913906,8.37246094 9.87658594,8.45128125 9.73919531,8.61595313 L7.15921875,11.7119531 L6.42417187,10.9757813 Z" id="Path"></path>
                <path d="M10.2000234,22.1999766 C9.86864063,22.1999766 9.60004688,22.4685703 9.60004688,22.7999531 L9.60004688,24.5999531 L4.80002344,24.5999531 L4.80002344,19.8 L7.2,19.8 C7.53138281,19.8 7.79997656,19.5313359 7.79997656,19.2000234 C7.79997656,18.8686406 7.53138281,18.6000469 7.2,18.6000469 L4.80002344,18.6000469 C4.13725781,18.6000469 3.6,19.1373047 3.6,19.8000703 L3.6,24.6000937 C3.6,25.2628594 4.13725781,25.8001172 4.80002344,25.8001172 L9.60004688,25.8001172 C10.2628125,25.8001172 10.8000703,25.2628594 10.8000703,24.6000937 L10.8000703,22.8000937 C10.8000703,22.4686406 10.5313359,22.1999766 10.2000234,22.1999766 Z" id="Path"></path>
                <path d="M6.42417187,21.1758047 C6.18876562,20.9484141 5.81449219,20.9516484 5.58309375,21.1831172 C5.351625,21.4145859 5.34839063,21.7887891 5.57578125,22.0241953 L6.77580469,23.2242188 C6.88830469,23.3367188 7.04088281,23.4 7.2,23.4 L7.227,23.4 C7.39532813,23.3924766 7.55275781,23.3145703 7.66082813,23.1851953 L10.6608516,19.5851953 C10.7982422,19.4205938 10.8374063,19.1951719 10.7635078,18.9938672 C10.6896094,18.7925625 10.5139688,18.6459609 10.3026797,18.6092578 C10.0913906,18.5725547 9.87658594,18.651375 9.73919531,18.8160469 L7.15921875,21.9120469 L6.42417187,21.1758047 Z" id="Path"></path>
                <path d="M13.1999766,10.2000234 L18,10.2000234 C18.3313828,10.2000234 18.5999766,9.93142969 18.5999766,9.60004688 C18.5999766,9.26866406 18.3313828,9 18,9 L13.1999766,9 C12.8685937,9 12.6,9.26859375 12.6,9.59997656 C12.6,9.93135937 12.8686641,10.2000234 13.1999766,10.2000234 Z" id="Path"></path>
                <path d="M21.6,12.6 C21.6,12.2686172 21.3314062,12.0000234 21.0000234,12.0000234 L13.1999766,12.0000234 C12.8685937,12.0000234 12.6,12.2686172 12.6,12.6 C12.6,12.9313828 12.8685937,13.1999766 13.1999766,13.1999766 L20.9999531,13.1999766 C21.3314062,13.1999766 21.6,12.9313828 21.6,12.6 Z" id="Path"></path>
                <path d="M18,19.2000234 L13.1999766,19.2000234 C12.8685937,19.2000234 12.6,19.4686875 12.6,19.8 C12.6,20.1313125 12.8685937,20.3999766 13.1999766,20.3999766 L18,20.3999766 C18.3313828,20.3999766 18.5999766,20.1313828 18.5999766,19.8 C18.5999766,19.4686172 18.3313828,19.2000234 18,19.2000234 Z" id="Path"></path>
                <path d="M17.4000234,22.1999766 L13.2000469,22.1999766 C12.8686641,22.1999766 12.6000703,22.4685703 12.6000703,22.7999531 C12.6000703,23.1313359 12.8686641,23.3999297 13.2000469,23.3999297 L17.4000234,23.3999297 C17.7314062,23.3999297 18,23.1313359 18,22.7999531 C18,22.4685703 17.7314062,22.1999766 17.4000234,22.1999766 Z" id="Path"></path>
            </g>
        </g>
    </g>
</svg>